<svg width="391" height="391" viewBox="0 0 391 391" fill="none" xmlns="http://www.w3.org/2000/svg">
<g opacity="0.4">
<path d="M5.36841 59.0529C5.36841 33.7459 5.36841 21.0924 13.2303 13.2305C21.0922 5.36865 33.7457 5.36865 59.0527 5.36865L264.626 5.36865C289.933 5.36865 302.587 5.36865 310.448 13.2305C318.31 21.0924 318.31 33.7459 318.31 59.0529L318.31 264.625C318.31 289.932 318.31 302.585 310.448 310.447C302.587 318.309 289.933 318.309 264.626 318.309L59.0526 318.309C33.7456 318.309 21.0922 318.309 13.2303 310.447C5.36841 302.585 5.36841 289.932 5.36841 264.625L5.36841 59.0529Z" fill="url(#paint0_linear_2004_49)"/>
<path d="M264.626 2.68408C277.204 2.68408 286.907 2.67857 294.437 3.69092C302.044 4.71367 307.834 6.81973 312.347 11.3325C316.859 15.8452 318.965 21.6349 319.988 29.2417C321 36.7716 320.994 46.4756 320.994 59.0532L320.994 264.625C320.994 277.202 321 286.905 319.988 294.435C318.965 302.042 316.86 307.832 312.347 312.345C307.834 316.858 302.044 318.964 294.437 319.987C286.907 320.999 277.204 320.994 264.626 320.994L59.053 320.994C46.4754 320.994 36.7714 320.999 29.2415 319.987C21.6345 318.964 15.845 316.858 11.3323 312.345C6.81948 307.832 4.71343 302.042 3.69067 294.435C2.67837 286.905 2.68384 277.202 2.68384 264.625L2.68384 59.0532C2.68384 46.4756 2.6783 36.7716 3.69067 29.2417C4.71345 21.6348 6.81956 15.8452 11.3323 11.3325C15.845 6.81981 21.6345 4.71369 29.2415 3.69092C36.7714 2.67855 46.4754 2.68408 59.053 2.68408L264.626 2.68408Z" stroke="#47266B" stroke-opacity="0.8" stroke-width="5.36843"/>
</g>
<g opacity="0.7">
<path d="M38.8997 92.5793C38.8997 67.2723 38.8997 54.6188 46.7615 46.7569C54.6234 38.895 67.2769 38.895 92.5839 38.895L298.157 38.895C323.464 38.895 336.118 38.895 343.98 46.7569C351.842 54.6188 351.842 67.2723 351.842 92.5793L351.842 298.151C351.842 323.458 351.842 336.112 343.98 343.973C336.118 351.835 323.464 351.835 298.157 351.835L92.5839 351.835C67.2769 351.835 54.6234 351.835 46.7615 343.973C38.8997 336.112 38.8997 323.458 38.8997 298.151L38.8997 92.5793Z" fill="url(#paint1_linear_2004_49)"/>
<path d="M298.157 36.2104C310.735 36.2104 320.438 36.2049 327.968 37.2173C335.575 38.24 341.365 40.3461 345.878 44.8589C350.391 49.3716 352.496 55.1613 353.519 62.7681C354.531 70.298 354.526 80.002 354.526 92.5796L354.526 298.151C354.526 310.728 354.531 320.432 353.519 327.961C352.496 335.568 350.391 341.359 345.878 345.872C341.365 350.384 335.575 352.49 327.968 353.513C320.438 354.526 310.735 354.52 298.157 354.52L92.5842 354.52C80.0066 354.52 70.3026 354.526 62.7727 353.513C55.1658 352.49 49.3762 350.384 44.8635 345.872C40.3507 341.359 38.2447 335.569 37.2219 327.961C36.2096 320.432 36.2151 310.728 36.2151 298.151L36.2151 92.5796C36.2151 80.002 36.2096 70.298 37.2219 62.7681C38.2447 55.1611 40.3508 49.3716 44.8635 44.8589C49.3762 40.3462 55.1658 38.2401 62.7727 37.2173C70.3026 36.2049 80.0066 36.2104 92.5842 36.2104L298.157 36.2104Z" stroke="#47266B" stroke-opacity="0.8" stroke-width="5.36843"/>
</g>
<rect x="72.4263" y="72.4287" width="312.942" height="312.94" rx="26.8421" fill="url(#paint2_linear_2004_49)"/>
<rect x="69.7421" y="69.7445" width="318.31" height="318.309" rx="29.5263" stroke="#47266B" stroke-opacity="0.8" stroke-width="5.36843"/>
<defs>
<linearGradient id="paint0_linear_2004_49" x1="22.0011" y1="16.4571" x2="309.684" y2="318.31" gradientUnits="userSpaceOnUse">
<stop stop-color="#623791"/>
<stop offset="1" stop-color="#AE92CD"/>
</linearGradient>
<linearGradient id="paint1_linear_2004_49" x1="55.5324" y1="49.9835" x2="343.216" y2="351.837" gradientUnits="userSpaceOnUse">
<stop stop-color="#623791"/>
<stop offset="1" stop-color="#AE92CD"/>
</linearGradient>
<linearGradient id="paint2_linear_2004_49" x1="89.059" y1="83.5172" x2="376.742" y2="385.371" gradientUnits="userSpaceOnUse">
<stop stop-color="#623791"/>
<stop offset="1" stop-color="#AE92CD"/>
</linearGradient>
</defs>
</svg>
