<svg width="2786" height="391" viewBox="0 0 2786 391" fill="none" xmlns="http://www.w3.org/2000/svg">
<g opacity="0.4">
<path d="M5.36841 59.0529C5.36841 33.7459 5.36841 21.0924 13.2303 13.2305C21.0922 5.36865 33.7457 5.36865 59.0527 5.36865L264.626 5.36865C289.933 5.36865 302.587 5.36865 310.448 13.2305C318.31 21.0924 318.31 33.7459 318.31 59.0529L318.31 264.625C318.31 289.932 318.31 302.585 310.448 310.447C302.587 318.309 289.933 318.309 264.626 318.309L59.0526 318.309C33.7456 318.309 21.0922 318.309 13.2303 310.447C5.36841 302.585 5.36841 289.932 5.36841 264.625L5.36841 59.0529Z" fill="url(#paint0_linear_2004_53)"/>
<path d="M264.626 2.68408C277.204 2.68408 286.907 2.67857 294.437 3.69092C302.044 4.71367 307.834 6.81973 312.347 11.3325C316.859 15.8452 318.965 21.6349 319.988 29.2417C321 36.7716 320.994 46.4756 320.994 59.0532L320.994 264.625C320.994 277.202 321 286.905 319.988 294.435C318.965 302.042 316.86 307.832 312.347 312.345C307.834 316.858 302.044 318.964 294.437 319.987C286.907 320.999 277.204 320.994 264.626 320.994L59.053 320.994C46.4754 320.994 36.7714 320.999 29.2415 319.987C21.6345 318.964 15.845 316.858 11.3323 312.345C6.81948 307.832 4.71343 302.042 3.69067 294.435C2.67837 286.905 2.68384 277.202 2.68384 264.625L2.68384 59.0532C2.68384 46.4756 2.6783 36.7716 3.69067 29.2417C4.71345 21.6348 6.81956 15.8452 11.3323 11.3325C15.845 6.81981 21.6345 4.71369 29.2415 3.69092C36.7714 2.67855 46.4754 2.68408 59.053 2.68408L264.626 2.68408Z" stroke="#47266B" stroke-opacity="0.8" stroke-width="5.36843"/>
</g>
<g opacity="0.7">
<path d="M38.8997 92.5793C38.8997 67.2723 38.8997 54.6188 46.7615 46.7569C54.6234 38.895 67.2769 38.895 92.5839 38.895L298.157 38.895C323.464 38.895 336.118 38.895 343.98 46.7569C351.842 54.6188 351.842 67.2723 351.842 92.5793L351.842 298.151C351.842 323.458 351.842 336.112 343.98 343.973C336.118 351.835 323.464 351.835 298.157 351.835L92.5839 351.835C67.2769 351.835 54.6234 351.835 46.7615 343.973C38.8997 336.112 38.8997 323.458 38.8997 298.151L38.8997 92.5793Z" fill="url(#paint1_linear_2004_53)"/>
<path d="M298.157 36.2104C310.735 36.2104 320.438 36.2049 327.968 37.2173C335.575 38.24 341.365 40.3461 345.878 44.8589C350.391 49.3716 352.496 55.1613 353.519 62.7681C354.531 70.298 354.526 80.002 354.526 92.5796L354.526 298.151C354.526 310.728 354.531 320.432 353.519 327.961C352.496 335.568 350.391 341.359 345.878 345.872C341.365 350.384 335.575 352.49 327.968 353.513C320.438 354.526 310.735 354.52 298.157 354.52L92.5842 354.52C80.0066 354.52 70.3026 354.526 62.7727 353.513C55.1658 352.49 49.3762 350.384 44.8635 345.872C40.3507 341.359 38.2447 335.569 37.2219 327.961C36.2096 320.432 36.2151 310.728 36.2151 298.151L36.2151 92.5796C36.2151 80.002 36.2096 70.298 37.2219 62.7681C38.2447 55.1611 40.3508 49.3716 44.8635 44.8589C49.3762 40.3462 55.1658 38.2401 62.7727 37.2173C70.3026 36.2049 80.0066 36.2104 92.5842 36.2104L298.157 36.2104Z" stroke="#47266B" stroke-opacity="0.8" stroke-width="5.36843"/>
</g>
<rect x="72.4263" y="72.4287" width="312.942" height="312.94" rx="26.8421" fill="url(#paint2_linear_2004_53)"/>
<rect x="69.7421" y="69.7445" width="318.31" height="318.309" rx="29.5263" stroke="#47266B" stroke-opacity="0.8" stroke-width="5.36843"/>
<path d="M485.368 330.476V121.087H560.571C585.737 121.087 604.71 125.609 617.489 134.653C630.269 143.697 636.659 158.05 636.659 177.711C636.659 189.704 633.218 199.731 626.337 207.792C619.456 215.656 609.92 220.473 597.73 222.243C612.869 224.012 624.567 229.419 632.825 238.463C641.279 247.507 645.506 259.009 645.506 272.968C645.506 292.039 639.116 306.391 626.337 316.025C613.557 325.659 595.371 330.476 571.778 330.476H485.368ZM517.219 210.446H559.981C573.941 210.446 584.754 207.792 592.422 202.483C600.09 197.175 603.923 189.704 603.923 180.07C603.923 159.819 589.276 149.694 559.981 149.694H517.219V210.446ZM517.219 301.869H570.893C584.066 301.869 594.29 299.215 601.564 293.907C609.035 288.402 612.771 280.439 612.771 270.019C612.771 259.795 609.035 251.832 601.564 246.131C594.29 240.429 584.066 237.578 570.893 237.578H517.219V301.869Z" fill="#EFE7F2"/>
<path d="M669.056 330.476V121.087H805.306V150.284H700.906V211.331H801.767V239.643H700.906V301.279H807.665V330.476H669.056Z" fill="#EFE7F2"/>
<path d="M885.338 330.476V150.284H821.047V121.087H981.48V150.284H917.188V330.476H885.338Z" fill="#EFE7F2"/>
<path d="M1058.78 330.476V150.284H994.493V121.087H1154.93V150.284H1090.63V330.476H1058.78Z" fill="#EFE7F2"/>
<path d="M1170.26 330.476V121.087H1306.51V150.284H1202.11V211.331H1302.97V239.643H1202.11V301.279H1308.87V330.476H1170.26Z" fill="#EFE7F2"/>
<path d="M1335.87 330.476V121.087H1419.33C1441.55 121.087 1459.15 126.789 1472.12 138.192C1485.29 149.596 1491.88 164.931 1491.88 184.199C1491.88 196.389 1488.34 206.907 1481.26 215.755C1474.38 224.405 1466.03 230.205 1456.2 233.154C1465.83 234.727 1473.3 238.463 1478.61 244.361C1484.11 250.259 1487.36 258.615 1488.34 269.429L1493.94 330.476H1461.8L1456.79 273.558C1456.2 265.103 1453.35 258.91 1448.23 254.978C1443.12 250.849 1434.77 248.785 1423.17 248.785H1367.72V330.476H1335.87ZM1367.72 219.588H1419.92C1431.91 219.588 1441.35 216.639 1448.23 210.741C1455.31 204.843 1458.85 196.29 1458.85 185.084C1458.85 173.877 1455.21 165.324 1447.94 159.426C1440.86 153.331 1430.64 150.284 1417.27 150.284H1367.72V219.588Z" fill="#EFE7F2"/>
<path d="M1523.34 258.222V230.795H1622.14V258.222H1523.34Z" fill="#EFE7F2"/>
<path d="M1735.08 335.195C1718.37 335.195 1703.82 332.147 1691.44 326.052C1679.25 319.957 1669.61 311.503 1662.53 300.69C1655.46 289.876 1651.33 277.293 1650.15 262.941L1682.88 260.876C1684.85 275.425 1690.16 286.632 1698.81 294.496C1707.66 302.361 1719.94 306.293 1735.67 306.293C1749.24 306.293 1759.76 303.737 1767.23 298.625C1774.7 293.513 1778.44 286.042 1778.44 276.212C1778.44 270.314 1776.96 265.103 1774.01 260.581C1771.26 255.863 1765.85 251.636 1757.79 247.9C1749.93 243.968 1738.33 240.134 1722.99 236.398C1706.28 232.466 1692.91 228.043 1682.88 223.127C1672.86 218.016 1665.58 211.822 1661.06 204.548C1656.73 197.077 1654.57 187.934 1654.57 177.121C1654.57 165.128 1657.42 154.609 1663.12 145.565C1669.02 136.324 1677.38 129.148 1688.19 124.036C1699.01 118.925 1711.98 116.369 1727.12 116.369C1743.05 116.369 1756.71 119.318 1768.11 125.216C1779.52 131.114 1788.46 139.175 1794.95 149.399C1801.44 159.623 1805.47 171.321 1807.04 184.494L1774.31 186.263C1772.73 174.27 1767.92 164.44 1759.86 156.772C1751.99 149.104 1740.88 145.27 1726.53 145.27C1714.34 145.27 1704.71 148.121 1697.63 153.823C1690.75 159.328 1687.31 166.701 1687.31 175.941C1687.31 182.036 1688.68 187.05 1691.44 190.982C1694.38 194.914 1699.5 198.453 1706.77 201.599C1714.24 204.548 1724.76 207.595 1738.33 210.741C1756.41 214.87 1770.77 219.982 1781.38 226.077C1792 231.975 1799.57 238.954 1804.09 247.015C1808.81 255.076 1811.17 264.219 1811.17 274.442C1811.17 286.829 1807.93 297.642 1801.44 306.883C1795.15 315.927 1786.3 322.906 1774.9 327.822C1763.49 332.737 1750.22 335.195 1735.08 335.195Z" fill="#EFE7F2"/>
<path d="M1877.31 330.476V150.284H1813.02V121.087H1973.45V150.284H1909.16V330.476H1877.31Z" fill="#EFE7F2"/>
<path d="M2059.91 330.476V246.426L1986.48 121.087H2023.05L2075.83 214.575L2128.92 121.087H2165.49L2091.76 246.426V330.476H2059.91Z" fill="#EFE7F2"/>
<path d="M2182.81 330.476V121.087H2214.67V301.279H2316.71V330.476H2182.81Z" fill="#EFE7F2"/>
<path d="M2335.89 330.476V121.087H2472.14V150.284H2367.74V211.331H2468.6V239.643H2367.74V301.279H2474.5V330.476H2335.89Z" fill="#EFE7F2"/>
<path d="M2495.61 330.476V121.087H2562.85C2595.68 121.087 2620.95 130.23 2638.64 148.514C2656.34 166.602 2665.18 192.456 2665.18 226.077C2665.18 259.5 2656.43 285.256 2638.94 303.344C2621.63 321.432 2596.86 330.476 2564.62 330.476H2495.61ZM2527.46 301.279H2562.85C2609.05 301.279 2632.15 276.212 2632.15 226.077C2632.15 175.548 2609.05 150.284 2562.85 150.284H2527.46V301.279Z" fill="#EFE7F2"/>
<circle cx="2740.37" cy="290.369" r="45" fill="url(#paint3_linear_2004_53)"/>
<defs>
<linearGradient id="paint0_linear_2004_53" x1="22.0011" y1="16.4571" x2="309.684" y2="318.31" gradientUnits="userSpaceOnUse">
<stop stop-color="#623791"/>
<stop offset="1" stop-color="#AE92CD"/>
</linearGradient>
<linearGradient id="paint1_linear_2004_53" x1="55.5324" y1="49.9835" x2="343.216" y2="351.837" gradientUnits="userSpaceOnUse">
<stop stop-color="#623791"/>
<stop offset="1" stop-color="#AE92CD"/>
</linearGradient>
<linearGradient id="paint2_linear_2004_53" x1="89.059" y1="83.5172" x2="376.742" y2="385.371" gradientUnits="userSpaceOnUse">
<stop stop-color="#623791"/>
<stop offset="1" stop-color="#AE92CD"/>
</linearGradient>
<linearGradient id="paint3_linear_2004_53" x1="2700.15" y1="248.558" x2="2782.89" y2="335.369" gradientUnits="userSpaceOnUse">
<stop stop-color="#623791"/>
<stop offset="1" stop-color="#AE92CD"/>
</linearGradient>
</defs>
</svg>
