<svg width="2786" height="391" viewBox="0 0 2786 391" fill="none" xmlns="http://www.w3.org/2000/svg">
<g opacity="0.4">
<path d="M5.36841 59.0534C5.36841 33.7464 5.36841 21.0929 13.2303 13.231C21.0922 5.36914 33.7457 5.36914 59.0527 5.36914L264.626 5.36914C289.933 5.36914 302.587 5.36914 310.448 13.231C318.31 21.0929 318.31 33.7464 318.31 59.0534L318.31 264.625C318.31 289.932 318.31 302.586 310.448 310.448C302.587 318.309 289.933 318.309 264.626 318.309L59.0526 318.309C33.7456 318.309 21.0922 318.309 13.2303 310.448C5.36841 302.586 5.36841 289.932 5.36841 264.625L5.36841 59.0534Z" fill="url(#paint0_linear_2004_54)"/>
<path d="M264.626 2.68457C277.204 2.68457 286.907 2.67906 294.437 3.69141C302.044 4.71416 307.834 6.82022 312.347 11.333C316.859 15.8457 318.965 21.6354 319.988 29.2422C321 36.7721 320.994 46.4761 320.994 59.0537L320.994 264.625C320.994 277.202 321 286.906 319.988 294.436C318.965 302.043 316.86 307.833 312.347 312.346C307.834 316.858 302.044 318.965 294.437 319.987C286.907 321 277.204 320.994 264.626 320.994L59.053 320.994C46.4754 320.994 36.7714 321 29.2415 319.987C21.6345 318.965 15.845 316.858 11.3323 312.346C6.81948 307.833 4.71343 302.043 3.69067 294.436C2.67837 286.906 2.68384 277.202 2.68384 264.625L2.68384 59.0537C2.68384 46.4761 2.6783 36.7721 3.69067 29.2422C4.71345 21.6353 6.81956 15.8457 11.3323 11.333C15.845 6.82029 21.6345 4.71418 29.2415 3.69141C36.7714 2.67904 46.4754 2.68457 59.053 2.68457L264.626 2.68457Z" stroke="#47266B" stroke-opacity="0.8" stroke-width="5.36843"/>
</g>
<g opacity="0.7">
<path d="M38.8997 92.5798C38.8997 67.2728 38.8997 54.6193 46.7615 46.7574C54.6234 38.8955 67.2769 38.8955 92.5839 38.8955L298.157 38.8955C323.464 38.8955 336.118 38.8955 343.98 46.7574C351.842 54.6193 351.842 67.2728 351.842 92.5798L351.842 298.152C351.842 323.459 351.842 336.112 343.98 343.974C336.118 351.836 323.464 351.836 298.157 351.836L92.5839 351.836C67.2769 351.836 54.6234 351.836 46.7615 343.974C38.8997 336.112 38.8997 323.459 38.8997 298.152L38.8997 92.5798Z" fill="url(#paint1_linear_2004_54)"/>
<path d="M298.157 36.2109C310.735 36.2109 320.438 36.2054 327.968 37.2178C335.575 38.2405 341.365 40.3466 345.878 44.8594C350.391 49.372 352.496 55.1618 353.519 62.7686C354.531 70.2985 354.526 80.0025 354.526 92.5801L354.526 298.151C354.526 310.729 354.531 320.432 353.519 327.962C352.496 335.569 350.391 341.359 345.878 345.872C341.365 350.385 335.575 352.491 327.968 353.514C320.438 354.526 310.735 354.521 298.157 354.521L92.5842 354.521C80.0066 354.521 70.3026 354.526 62.7727 353.514C55.1658 352.491 49.3762 350.385 44.8635 345.872C40.3507 341.359 38.2447 335.569 37.2219 327.962C36.2096 320.432 36.2151 310.729 36.2151 298.151L36.2151 92.5801C36.2151 80.0025 36.2096 70.2985 37.2219 62.7686C38.2447 55.1616 40.3508 49.3721 44.8635 44.8594C49.3762 40.3467 55.1658 38.2405 62.7727 37.2178C70.3026 36.2054 80.0066 36.2109 92.5842 36.2109L298.157 36.2109Z" stroke="#47266B" stroke-opacity="0.8" stroke-width="5.36843"/>
</g>
<rect x="72.4263" y="72.4287" width="312.942" height="312.94" rx="26.8421" fill="url(#paint2_linear_2004_54)"/>
<rect x="69.7421" y="69.7445" width="318.31" height="318.309" rx="29.5263" stroke="#47266B" stroke-opacity="0.8" stroke-width="5.36843"/>
<path d="M485.368 330.476V121.088H560.571C585.737 121.088 604.71 125.61 617.489 134.654C630.269 143.698 636.659 158.05 636.659 177.711C636.659 189.704 633.218 199.731 626.337 207.792C619.456 215.657 609.92 220.474 597.73 222.243C612.869 224.013 624.567 229.419 632.825 238.463C641.279 247.507 645.506 259.009 645.506 272.968C645.506 292.039 639.116 306.392 626.337 316.026C613.557 325.659 595.371 330.476 571.778 330.476H485.368ZM517.219 210.447H559.981C573.941 210.447 584.754 207.792 592.422 202.484C600.09 197.175 603.923 189.704 603.923 180.07C603.923 159.82 589.276 149.694 559.981 149.694H517.219V210.447ZM517.219 301.87H570.893C584.066 301.87 594.29 299.216 601.564 293.907C609.035 288.402 612.771 280.439 612.771 270.019C612.771 259.795 609.035 251.833 601.564 246.131C594.29 240.429 584.066 237.579 570.893 237.579H517.219V301.87Z" fill="#1B1425"/>
<path d="M669.056 330.476V121.088H805.306V150.284H700.906V211.331H801.767V239.643H700.906V301.28H807.665V330.476H669.056Z" fill="#1B1425"/>
<path d="M885.338 330.476V150.284H821.047V121.088H981.48V150.284H917.188V330.476H885.338Z" fill="#1B1425"/>
<path d="M1058.78 330.476V150.284H994.493V121.088H1154.93V150.284H1090.63V330.476H1058.78Z" fill="#1B1425"/>
<path d="M1170.26 330.476V121.088H1306.51V150.284H1202.11V211.331H1302.97V239.643H1202.11V301.28H1308.87V330.476H1170.26Z" fill="#1B1425"/>
<path d="M1335.87 330.476V121.088H1419.33C1441.55 121.088 1459.15 126.789 1472.12 138.193C1485.29 149.596 1491.88 164.932 1491.88 184.199C1491.88 196.389 1488.34 206.908 1481.26 215.755C1474.38 224.406 1466.03 230.206 1456.2 233.155C1465.83 234.728 1473.3 238.463 1478.61 244.362C1484.11 250.26 1487.36 258.616 1488.34 269.429L1493.94 330.476H1461.8L1456.79 273.558C1456.2 265.104 1453.35 258.911 1448.23 254.979C1443.12 250.85 1434.77 248.785 1423.17 248.785H1367.72V330.476H1335.87ZM1367.72 219.589H1419.92C1431.91 219.589 1441.35 216.64 1448.23 210.741C1455.31 204.843 1458.85 196.291 1458.85 185.084C1458.85 173.877 1455.21 165.325 1447.94 159.427C1440.86 153.332 1430.64 150.284 1417.27 150.284H1367.72V219.589Z" fill="#1B1425"/>
<path d="M1523.34 258.223V230.796H1622.14V258.223H1523.34Z" fill="#1B1425"/>
<path d="M1735.08 335.195C1718.37 335.195 1703.82 332.148 1691.44 326.053C1679.25 319.958 1669.61 311.504 1662.53 300.69C1655.46 289.877 1651.33 277.294 1650.15 262.941L1682.88 260.877C1684.85 275.426 1690.16 286.633 1698.81 294.497C1707.66 302.361 1719.94 306.293 1735.67 306.293C1749.24 306.293 1759.76 303.738 1767.23 298.626C1774.7 293.514 1778.44 286.043 1778.44 276.212C1778.44 270.314 1776.96 265.104 1774.01 260.582C1771.26 255.863 1765.85 251.636 1757.79 247.901C1749.93 243.968 1738.33 240.135 1722.99 236.399C1706.28 232.467 1692.91 228.043 1682.88 223.128C1672.86 218.016 1665.58 211.823 1661.06 204.548C1656.73 197.077 1654.57 187.935 1654.57 177.121C1654.57 165.128 1657.42 154.61 1663.12 145.566C1669.02 136.325 1677.38 129.149 1688.19 124.037C1699.01 118.925 1711.98 116.369 1727.12 116.369C1743.05 116.369 1756.71 119.318 1768.11 125.217C1779.52 131.115 1788.46 139.176 1794.95 149.399C1801.44 159.623 1805.47 171.321 1807.04 184.494L1774.31 186.264C1772.73 174.271 1767.92 164.44 1759.86 156.772C1751.99 149.105 1740.88 145.271 1726.53 145.271C1714.34 145.271 1704.71 148.121 1697.63 153.823C1690.75 159.328 1687.31 166.701 1687.31 175.942C1687.31 182.037 1688.68 187.05 1691.44 190.982C1694.38 194.914 1699.5 198.453 1706.77 201.599C1714.24 204.548 1724.76 207.596 1738.33 210.741C1756.41 214.87 1770.77 219.982 1781.38 226.077C1792 231.975 1799.57 238.955 1804.09 247.016C1808.81 255.077 1811.17 264.219 1811.17 274.443C1811.17 286.829 1807.93 297.643 1801.44 306.883C1795.15 315.927 1786.3 322.907 1774.9 327.822C1763.49 332.737 1750.22 335.195 1735.08 335.195Z" fill="#1B1425"/>
<path d="M1877.31 330.476V150.284H1813.02V121.088H1973.45V150.284H1909.16V330.476H1877.31Z" fill="#1B1425"/>
<path d="M2059.91 330.476V246.426L1986.48 121.088H2023.05L2075.83 214.575L2128.92 121.088H2165.49L2091.76 246.426V330.476H2059.91Z" fill="#1B1425"/>
<path d="M2182.81 330.476V121.088H2214.67V301.28H2316.71V330.476H2182.81Z" fill="#1B1425"/>
<path d="M2335.89 330.476V121.088H2472.14V150.284H2367.74V211.331H2468.6V239.643H2367.74V301.28H2474.5V330.476H2335.89Z" fill="#1B1425"/>
<path d="M2495.61 330.476V121.088H2562.85C2595.68 121.088 2620.95 130.23 2638.64 148.515C2656.34 166.603 2665.18 192.457 2665.18 226.077C2665.18 259.501 2656.43 285.256 2638.94 303.344C2621.63 321.432 2596.86 330.476 2564.62 330.476H2495.61ZM2527.46 301.28H2562.85C2609.05 301.28 2632.15 276.212 2632.15 226.077C2632.15 175.548 2609.05 150.284 2562.85 150.284H2527.46V301.28Z" fill="#1B1425"/>
<circle cx="2740.37" cy="290.369" r="45" fill="url(#paint3_linear_2004_54)"/>
<defs>
<linearGradient id="paint0_linear_2004_54" x1="22.0011" y1="16.4576" x2="309.684" y2="318.311" gradientUnits="userSpaceOnUse">
<stop stop-color="#623791"/>
<stop offset="1" stop-color="#AE92CD"/>
</linearGradient>
<linearGradient id="paint1_linear_2004_54" x1="55.5324" y1="49.984" x2="343.216" y2="351.837" gradientUnits="userSpaceOnUse">
<stop stop-color="#623791"/>
<stop offset="1" stop-color="#AE92CD"/>
</linearGradient>
<linearGradient id="paint2_linear_2004_54" x1="89.059" y1="83.5172" x2="376.742" y2="385.371" gradientUnits="userSpaceOnUse">
<stop stop-color="#623791"/>
<stop offset="1" stop-color="#AE92CD"/>
</linearGradient>
<linearGradient id="paint3_linear_2004_54" x1="2700.15" y1="248.558" x2="2782.89" y2="335.369" gradientUnits="userSpaceOnUse">
<stop stop-color="#623791"/>
<stop offset="1" stop-color="#AE92CD"/>
</linearGradient>
</defs>
</svg>
